<svg width="18" height="21" viewBox="0 0 18 21" fill="none" xmlns="http://www.w3.org/2000/svg">
<path d="M10.8667 15.2325V15.0492V8.55754C10.8667 8.45648 10.9489 8.3742 11.05 8.3742C11.1511 8.3742 11.2333 8.45648 11.2333 8.55754C11.2333 9.02262 11.6099 9.3992 12.075 9.3992C12.5401 9.3992 12.9167 9.02262 12.9167 8.55754C12.9167 7.52665 12.0809 6.69087 11.05 6.69087C10.6681 6.69087 10.3169 6.80748 10.025 7.00241C9.73312 6.80748 9.38194 6.69087 9 6.69087C8.61807 6.69087 8.26689 6.80748 7.975 7.00241C7.68311 6.80748 7.33194 6.69087 6.95 6.69087C5.91912 6.69087 5.08334 7.52665 5.08334 8.55754C5.08334 9.02262 5.45992 9.3992 5.925 9.3992C6.39009 9.3992 6.76667 9.02262 6.76667 8.55754C6.76667 8.45648 6.84895 8.3742 6.95 8.3742C7.05106 8.3742 7.13334 8.45648 7.13334 8.55754V15.0492V15.2325H5.82821C3.15724 14.023 1.3 11.3364 1.3 8.21587C1.3 3.96355 4.74737 0.515869 9 0.515869C13.2526 0.515869 16.7 3.96355 16.7 8.21587C16.7 11.3364 14.8428 14.023 12.1718 15.2325H10.8667ZM9.18334 15.2325H8.81667V15.0492V8.55754C8.81667 8.45648 8.89895 8.3742 9 8.3742C9.10106 8.3742 9.18334 8.45648 9.18334 8.55754V15.0492V15.2325Z" stroke="#B4B4B4"/>
<path d="M6.95001 20.5158H11.05C11.8054 20.5158 12.4167 19.9046 12.4167 19.1492H5.58334C5.58334 19.9046 6.19459 20.5158 6.95001 20.5158Z" fill="#B4B4B4"/>
<path d="M5.58334 16.4171V17.7824H12.4167V16.4171V16.4158H5.58334V16.4171Z" fill="#B4B4B4"/>
<path d="M12.4167 17.7825H5.58334V19.1491H12.4167V17.7825Z" fill="#B4B4B4"/>
</svg>
