<svg width="25" height="24" viewBox="0 0 25 24" fill="none" xmlns="http://www.w3.org/2000/svg">
<path d="M14.9495 17.6492V17.5992V9.99957C14.9495 9.9722 14.9721 9.9496 14.9995 9.9496C15.0268 9.9496 15.0494 9.9722 15.0494 9.99957C15.0494 10.635 15.564 11.1495 16.1994 11.1495C16.8348 11.1495 17.3494 10.635 17.3494 9.99957C17.3494 8.70179 16.2973 7.64964 14.9995 7.64964C14.5571 7.64964 14.1479 7.77375 13.7995 7.98401C13.4512 7.77375 13.0419 7.64964 12.5996 7.64964C12.1572 7.64964 11.748 7.77375 11.3996 7.98401C11.0513 7.77375 10.642 7.64964 10.1997 7.64964C8.90191 7.64964 7.84976 8.70179 7.84976 9.99957C7.84976 10.635 8.36434 11.1495 8.99974 11.1495C9.63514 11.1495 10.1497 10.635 10.1497 9.99957C10.1497 9.9722 10.1723 9.9496 10.1997 9.9496C10.2271 9.9496 10.2497 9.9722 10.2497 9.99957V17.5992V17.6492H8.92214C5.86926 16.2519 3.75 13.1731 3.75 9.59958C3.75 4.71241 7.71205 0.75 12.5996 0.75C17.4871 0.75 21.4492 4.71241 21.4492 9.59958C21.4492 13.1731 19.3299 16.2519 16.277 17.6492H14.9495ZM12.6495 17.6492H12.5496V17.5992V9.99957C12.5496 9.9722 12.5722 9.9496 12.5996 9.9496C12.627 9.9496 12.6495 9.9722 12.6495 9.99957V17.5992V17.6492Z" stroke="#B4B4B4" stroke-width="1.5"/>
<path d="M10.2 24H14.9998C15.8842 24 16.5998 23.2844 16.5998 22.4H8.6001C8.6001 23.2844 9.31567 24 10.2 24Z" fill="#B4B4B4"/>
<path d="M8.6001 19.2008V20.7991H16.5998V19.2008V19.1992H8.6001V19.2008Z" fill="#B4B4B4"/>
<path d="M16.5998 20.7986H8.6001V22.3985H16.5998V20.7986Z" fill="#B4B4B4"/>
</svg>
