<svg width="17" height="21" viewBox="0 0 17 21" fill="none" xmlns="http://www.w3.org/2000/svg">
<path d="M10.1667 6.76028C9.67336 7.08992 9.09334 7.26587 8.5 7.26587C7.70435 7.26587 6.94129 6.9498 6.37868 6.38719C5.81607 5.82458 5.5 5.06152 5.5 4.26587C5.5 3.67253 5.67595 3.09251 6.00559 2.59916C6.33524 2.10581 6.80377 1.72129 7.35195 1.49423C7.90013 1.26717 8.50333 1.20776 9.08527 1.32352C9.66721 1.43927 10.2018 1.72499 10.6213 2.14455C11.0409 2.56411 11.3266 3.09866 11.4424 3.6806C11.5581 4.26254 11.4987 4.86574 11.2716 5.41392C11.0446 5.9621 10.6601 6.43063 10.1667 6.76028Z" stroke="#B4B4B4" stroke-width="2"/>
<path d="M15.4637 19.2237C15.4381 19.2489 15.4001 19.2659 15.3571 19.2659H1.64286C1.59993 19.2659 1.56188 19.2489 1.53625 19.2237C1.51116 19.199 1.5 19.1689 1.5 19.1409C1.5 17.3226 2.23361 15.5756 3.54466 14.2851C4.85625 12.994 6.63845 12.2659 8.5 12.2659C10.3616 12.2659 12.1437 12.994 13.4553 14.2851C14.7664 15.5756 15.5 17.3226 15.5 19.1409C15.5 19.1689 15.4888 19.199 15.4637 19.2237L16.1189 19.8893L15.4637 19.2237Z" stroke="#B4B4B4" stroke-width="2"/>
</svg>
