<svg width="24" height="24" viewBox="0 0 24 24" fill="none" xmlns="http://www.w3.org/2000/svg">
<path d="M14.0113 7.95958C13.3864 8.37713 12.6517 8.6 11.9001 8.6C10.8923 8.6 9.92573 8.19964 9.21309 7.48701C8.50045 6.77437 8.1001 5.80782 8.1001 4.8C8.1001 4.04843 8.32296 3.31374 8.74051 2.68883C9.15806 2.06393 9.75154 1.57687 10.4459 1.28926C11.1403 1.00165 11.9043 0.926394 12.6414 1.07302C13.3786 1.21964 14.0557 1.58156 14.5871 2.113C15.1185 2.64443 15.4805 3.32153 15.6271 4.05866C15.7737 4.79579 15.6985 5.55984 15.4108 6.2542C15.1232 6.94856 14.6362 7.54203 14.0113 7.95958Z" stroke="#B4B4B4" stroke-width="2"/>
<path d="M20.3966 22.8917C20.3281 22.9591 20.2319 22.9997 20.1284 22.9997H3.67123C3.56768 22.9997 3.47149 22.9591 3.40301 22.8917L2.70475 23.601L3.403 22.8916C3.33505 22.8248 3.2998 22.7374 3.2998 22.6497C3.2998 20.4138 4.20198 18.2661 5.8131 16.6802C7.42474 15.0937 9.61391 14.1997 11.8998 14.1997C14.1857 14.1997 16.3749 15.0937 17.9865 16.6802C19.5976 18.2661 20.4998 20.4138 20.4998 22.6497C20.4998 22.7374 20.4646 22.8248 20.3966 22.8917Z" stroke="#B4B4B4" stroke-width="2"/>
</svg>
