<svg width="24" height="24" viewBox="0 0 24 24" fill="none" xmlns="http://www.w3.org/2000/svg">
<g clip-path="url(#clip0_605_1605)">
<path fill-rule="evenodd" clip-rule="evenodd" d="M10.8986 3.96291C11.0909 3.71194 11.4398 3.34937 11.9999 3.34937C12.5599 3.34937 12.9088 3.71194 13.1011 3.96291C13.2845 4.20244 13.4692 4.53401 13.6586 4.87395L13.7943 5.11721C13.8197 5.16286 13.8397 5.19878 13.8572 5.22951C13.8877 5.23667 13.9232 5.24472 13.9675 5.25474L14.2331 5.3148C14.599 5.39749 14.9627 5.47966 15.2418 5.58968C15.5501 5.71115 15.9679 5.94773 16.1289 6.46558C16.2871 6.9743 16.0874 7.40521 15.9131 7.68216C15.7518 7.93848 15.5065 8.22512 15.2555 8.51857L15.0761 8.72828C15.0376 8.7733 15.0086 8.80724 14.9842 8.83661C14.9875 8.87718 14.992 8.92443 14.9982 8.98761L15.0252 9.26608C15.0634 9.65893 15.1002 10.0386 15.0867 10.3423C15.0725 10.6607 14.9961 11.1427 14.5638 11.4707C14.118 11.8092 13.6256 11.7355 13.3134 11.646C13.0257 11.5636 12.6857 11.4069 12.3433 11.2492L12.0946 11.1346C12.0572 11.1174 12.0266 11.1034 11.9999 11.0912C11.9731 11.1034 11.9425 11.1174 11.9051 11.1346L11.6564 11.2492C11.314 11.4069 10.974 11.5636 10.6863 11.646C10.3741 11.7355 9.88172 11.8092 9.43583 11.4707C9.00364 11.1427 8.92722 10.6607 8.91304 10.3423C8.89951 10.0386 8.93637 9.65895 8.97453 9.26611L9.00152 8.98761C9.00765 8.92443 9.0122 8.87718 9.01554 8.83661C8.99109 8.80724 8.96208 8.7733 8.92359 8.72828L8.74424 8.51857C8.49318 8.22512 8.24794 7.93848 8.08658 7.68216C7.91223 7.40521 7.71261 6.9743 7.87081 6.46558C8.03184 5.94773 8.44966 5.71115 8.75791 5.58968C9.03708 5.47967 9.40074 5.39749 9.76667 5.3148L10.0322 5.25475C10.0765 5.24472 10.112 5.23667 10.1425 5.22951C10.16 5.19878 10.18 5.16286 10.2054 5.11721L10.3411 4.87393C10.5305 4.53401 10.7152 4.20244 10.8986 3.96291ZM11.9999 5.34134C11.935 5.4537 11.8628 5.58307 11.7777 5.73562L11.668 5.93249L11.6431 5.97782C11.5555 6.13813 11.4102 6.40362 11.1682 6.58737C10.9211 6.77496 10.6238 6.83951 10.45 6.87725L10.4017 6.88788L10.1886 6.9361C9.99301 6.98034 9.83372 7.01644 9.69753 7.05067C9.78616 7.15973 9.90114 7.29512 10.0508 7.47015L10.1962 7.64003L10.2295 7.67875C10.3501 7.81753 10.5446 8.0416 10.6345 8.33088C10.7235 8.61674 10.6928 8.91115 10.6735 9.09688L10.6681 9.1491L10.6461 9.37578C10.6258 9.58593 10.61 9.75366 10.5995 9.89009C10.7158 9.83885 10.8481 9.7779 11.0053 9.70556L11.2048 9.6137L11.2498 9.5926C11.41 9.51705 11.6887 9.3856 11.9999 9.3856C12.311 9.3856 12.5897 9.51704 12.7499 9.59259L12.7949 9.6137L12.9945 9.70557C13.1516 9.7779 13.2839 9.83885 13.4002 9.89009C13.3897 9.75366 13.3739 9.58593 13.3536 9.37578L13.3316 9.1491L13.3262 9.09688C13.3069 8.91115 13.2762 8.61674 13.3652 8.33088C13.4551 8.0416 13.6496 7.81753 13.7702 7.67875L13.8035 7.64003L13.9489 7.47014C14.0986 7.29512 14.2135 7.15973 14.3022 7.05067C14.166 7.01644 14.0067 6.98034 13.8111 6.9361L13.598 6.88788L13.5497 6.87725C13.3759 6.83951 13.0786 6.77497 12.8315 6.58737C12.5895 6.40362 12.4442 6.13813 12.3566 5.97782L12.3317 5.93249L12.222 5.73562C12.1369 5.58307 12.0647 5.4537 11.9999 5.34134ZM10.5926 10.3389C10.5926 10.3389 10.5923 10.3379 10.5919 10.3355L10.5926 10.3389ZM13.4071 10.3389L13.4078 10.3355C13.4074 10.3379 13.4071 10.3389 13.4071 10.3389Z" fill="#B4B4B4"/>
<path fill-rule="evenodd" clip-rule="evenodd" d="M6.97496 0.398724C8.27307 0.17971 9.95989 0 12.0002 0C14.0404 0 15.7273 0.17971 17.0254 0.398724L17.176 0.423996C18.3036 0.612759 19.2409 0.769663 19.9738 1.67228C20.4439 2.25118 20.5955 2.8768 20.6304 3.57569L21.1793 3.75865C21.6962 3.93094 22.1493 4.08195 22.5089 4.24918C22.8975 4.42998 23.2537 4.66285 23.5259 5.04061C23.7982 5.41837 23.9065 5.8299 23.9551 6.25575C24 6.64968 24 7.12731 24 7.67225V7.83436C24 8.28287 24 8.67906 23.9668 9.01037C23.931 9.36946 23.8515 9.71856 23.653 10.0559C23.4545 10.3933 23.1879 10.6323 22.8914 10.8381C22.6178 11.0279 22.2716 11.2203 21.8794 11.4381L18.9318 13.0758C18.3296 14.2605 17.5024 15.3168 16.3648 16.0798C15.3884 16.7346 14.2193 17.1492 12.8372 17.2674V19.5349H14.4337C15.3649 19.5349 16.1666 20.1921 16.3492 21.1053L16.5934 22.3256H18.6977C19.16 22.3256 19.5349 22.7004 19.5349 23.1628C19.5349 23.6252 19.16 24 18.6977 24H5.30233C4.83995 24 4.46512 23.6252 4.46512 23.1628C4.46512 22.7004 4.83995 22.3256 5.30233 22.3256H7.40668L7.65074 21.1053C7.83337 20.1921 8.63511 19.5349 9.5663 19.5349H11.1628V17.2674C9.78084 17.1491 8.61187 16.7346 7.63554 16.0798C6.49803 15.3168 5.6709 14.2607 5.06878 13.0761L2.12051 11.4381C1.7284 11.2203 1.3821 11.0279 1.10855 10.8381C0.812073 10.6323 0.545495 10.3933 0.346976 10.0559C0.148457 9.71856 0.0689888 9.36946 0.0331005 9.01037C-8.3793e-06 8.67904 2.82793e-06 8.28288 1.39907e-05 7.83435L2.81277e-06 7.67223C-4.18384e-05 7.12731 -8.6496e-05 6.64968 0.0448772 6.25575C0.0934912 5.8299 0.201781 5.41837 0.474042 5.04061C0.746313 4.66285 1.10246 4.42998 1.49109 4.24918C1.85058 4.08195 2.3037 3.93094 2.82068 3.75865L3.36995 3.57555C3.40491 2.87672 3.55656 2.25113 4.02656 1.67228C4.75944 0.769663 5.69674 0.612759 6.82443 0.423996L6.97496 0.398724ZM9.11426 22.3256H14.8858L14.7073 21.4337C14.6813 21.3032 14.5668 21.2093 14.4337 21.2093H9.5663C9.43328 21.2093 9.31874 21.3032 9.29266 21.4337L9.11426 22.3256ZM3.407 5.3282L3.39181 5.33327C2.82093 5.52356 2.45986 5.64525 2.19736 5.76737C1.95438 5.8804 1.87621 5.95889 1.83242 6.01965C1.78863 6.08041 1.73889 6.17939 1.7085 6.44564C1.67566 6.73329 1.67441 7.1143 1.67443 7.71607V7.79703C1.67444 8.29398 1.67541 8.60567 1.69921 8.84387C1.72116 9.06345 1.75734 9.1511 1.7901 9.20678C1.82286 9.26246 1.88192 9.33664 2.06321 9.46246C2.25988 9.59895 2.53188 9.75117 2.96628 9.99248L4.15589 10.6534C3.67859 8.90094 3.48689 7.02528 3.407 5.3282ZM19.8445 10.6532C20.3217 8.90081 20.5134 7.02529 20.5933 5.32833L20.6082 5.33327C21.1791 5.52356 21.5401 5.64525 21.8026 5.76737C22.0456 5.8804 22.1238 5.95889 22.1675 6.01965C22.2114 6.08041 22.2611 6.17939 22.2914 6.44564C22.3242 6.73329 22.3256 7.1143 22.3256 7.71607V7.79703C22.3255 8.29398 22.3246 8.60567 22.3007 8.84387C22.2788 9.06345 22.2426 9.1511 22.2098 9.20678C22.1771 9.26246 22.1181 9.33664 21.9368 9.46246C21.7401 9.59895 21.4681 9.75117 21.0337 9.99248L19.8445 10.6532ZM12.0002 1.67442C10.0586 1.67442 8.46496 1.84542 7.25354 2.04981C5.90628 2.27712 5.62327 2.36216 5.32645 2.72772C5.03393 3.08798 5.00616 3.42872 5.06621 4.94145C5.16631 7.46274 5.49891 10.1835 6.52894 12.2527C7.03738 13.2741 7.70214 14.1083 8.56821 14.6891C9.42872 15.2663 10.5389 15.6279 12.0002 15.6279C13.4614 15.6279 14.5716 15.2663 15.4321 14.6891C16.2982 14.1083 16.963 13.2741 17.4714 12.2527C18.5014 10.1835 18.8341 7.46274 18.9341 4.94145C18.9942 3.42872 18.9664 3.08798 18.6739 2.72772C18.3771 2.36216 18.0941 2.27712 16.7469 2.04981C15.5354 1.84542 13.9418 1.67442 12.0002 1.67442Z" fill="#B4B4B4"/>
</g>
<defs>
<clipPath id="clip0_605_1605">
<rect width="24" height="24" fill="white"/>
</clipPath>
</defs>
</svg>
